<svg width="21" height="34" viewBox="0 0 21 34" fill="none" xmlns="http://www.w3.org/2000/svg">
<g clip-path="url(#clip0_289_1505)">
<path d="M21 23.4259C20.9966 25.8562 20.1629 28.2113 18.6392 30.0954C17.1154 31.9794 14.9944 33.2777 12.6325 33.7721C10.2707 34.2665 7.81185 33.9268 5.66928 32.8101C3.5267 31.6934 1.83092 29.8678 0.866887 27.6399C0.799961 27.4819 0.735131 27.3239 0.674479 27.1627C0.613828 27.0015 0.558395 26.8403 0.507155 26.6781C0.481012 26.5959 0.455918 26.5148 0.431867 26.4337C0.311939 26.0258 0.216607 25.611 0.146389 25.1916C0.110835 24.9809 0.0826056 24.7649 0.0595999 24.5511C0.0522799 24.4794 0.0449523 24.4078 0.038678 24.3404C0.0324037 24.2729 0.0271854 24.1981 0.0230025 24.1296C0.0188197 24.0612 0.0156723 24.0169 0.0125352 23.96C0.00939807 23.9031 0.0125418 23.8484 0.00626757 23.7936C-6.70436e-06 23.7388 0.00626757 23.7093 0.00626757 23.6682C0.00626757 23.6503 0.00626757 23.6324 0.00626757 23.6155C0.00626757 23.5713 0.00626757 23.527 0.00626757 23.4838V23.4259C0.00626757 23.3606 0.00626757 23.2942 0.00626757 23.2289C0.00626757 23.1636 0.00625991 23.1004 0.0114885 23.0361C0.0114885 22.877 0.0261305 22.7201 0.0397248 22.5578C0.053319 22.3956 0.0690016 22.2418 0.0888702 22.0806L0.113979 21.8909C0.124436 21.8277 0.133838 21.7635 0.143249 21.7002C0.165209 21.5696 0.188221 21.439 0.214363 21.3094C0.240506 21.1798 0.265604 21.0681 0.293839 20.948C0.308478 20.8859 0.323112 20.8237 0.339844 20.7616C0.356575 20.6994 0.372259 20.6373 0.390036 20.5762C0.407813 20.5151 0.423499 20.4529 0.442321 20.3928C0.441728 20.3901 0.441728 20.3872 0.442321 20.3844C0.458007 20.3296 0.474748 20.2791 0.49148 20.2232C0.49148 20.2127 0.497751 20.2011 0.501934 20.1906C0.528077 20.1084 0.554222 20.0273 0.582456 19.9462C0.61069 19.865 0.639966 19.7829 0.669246 19.7028L0.719438 19.5732C0.754992 19.4794 0.792645 19.3867 0.831336 19.2951C0.856433 19.235 0.881529 19.176 0.908718 19.116C0.926495 19.0749 0.945321 19.0338 0.964144 18.9927L1.03315 18.8442C1.05407 18.801 1.07498 18.7567 1.09694 18.7135C1.1189 18.6703 1.14505 18.6156 1.17119 18.5671C1.19734 18.5186 1.21407 18.4839 1.23603 18.4428L1.26844 18.3806L1.34582 18.2405C1.37719 18.1829 1.40961 18.126 1.44308 18.0698C1.45772 18.0435 1.47339 18.0172 1.48908 17.9919L3.90364 20.4234L3.89422 20.4434C3.87121 20.495 3.84925 20.5488 3.82729 20.5993L3.81998 20.6193C3.80743 20.6488 3.79488 20.6794 3.78338 20.7089C3.7426 20.8142 3.70494 20.9122 3.67044 21.0144C3.66207 21.0365 3.65475 21.0576 3.64848 21.0797C3.6307 21.1324 3.61293 21.1851 3.59724 21.2378C3.59724 21.2493 3.58992 21.2609 3.58679 21.2725C3.56796 21.3294 3.55228 21.3863 3.53659 21.4453C3.53118 21.4597 3.52698 21.4745 3.52405 21.4895C3.50627 21.5538 3.49057 21.617 3.47489 21.6813C3.47454 21.6837 3.47454 21.6862 3.47489 21.6887C3.46234 21.7403 3.45084 21.794 3.43934 21.8435L3.43307 21.8709L3.42052 21.931C3.40797 21.9921 3.39646 22.0532 3.38496 22.1143C3.37346 22.1754 3.363 22.2439 3.35255 22.3102C3.34209 22.3766 3.33372 22.4451 3.32536 22.5125C3.32536 22.5357 3.31909 22.5589 3.317 22.5831C3.30968 22.6431 3.3034 22.7053 3.29817 22.7654C3.29768 22.7674 3.29768 22.7696 3.29817 22.7717C3.29817 22.8391 3.28771 22.9055 3.28353 22.9729C3.28353 23.0561 3.27516 23.1393 3.27307 23.2226C3.27307 23.2886 3.27307 23.355 3.27307 23.4217C3.26156 24.3862 3.44019 25.3435 3.79861 26.238C4.15703 27.1324 4.6881 27.9463 5.36105 28.6325C6.034 29.3187 6.83545 29.8635 7.71893 30.2353C8.60242 30.6071 9.55036 30.7986 10.5078 30.7986C11.4653 30.7986 12.4133 30.6071 13.2967 30.2353C14.1802 29.8635 14.9817 29.3187 15.6546 28.6325C16.3276 27.9463 16.8586 27.1324 17.2171 26.238C17.5755 25.3435 17.7541 24.3862 17.7426 23.4217C17.7426 23.3553 17.7426 23.2889 17.7426 23.2226C17.7426 23.1393 17.7426 23.0561 17.7321 22.9729C17.7321 22.9055 17.7227 22.8391 17.7175 22.7717C17.718 22.7696 17.718 22.7674 17.7175 22.7654C17.7175 22.7053 17.706 22.6431 17.6987 22.5831C17.6987 22.5589 17.6987 22.5357 17.6914 22.5125C17.683 22.4423 17.6736 22.3748 17.6631 22.3102C17.6537 22.2439 17.6422 22.1796 17.6307 22.1143C17.6192 22.049 17.6077 21.9921 17.5951 21.931L17.5826 21.8709C17.5811 21.8617 17.579 21.8525 17.5763 21.8435C17.5648 21.7919 17.5544 21.7382 17.5408 21.6887C17.5411 21.6862 17.5411 21.6837 17.5408 21.6813C17.5261 21.617 17.5094 21.5538 17.4927 21.4895C17.4885 21.4741 17.4843 21.4593 17.4801 21.4453C17.4634 21.3863 17.4477 21.3294 17.4299 21.2725C17.4299 21.2609 17.4226 21.2493 17.4195 21.2378C17.4027 21.1851 17.386 21.1324 17.3672 21.0797C17.3609 21.0576 17.3536 21.0365 17.3452 21.0144C17.3107 20.9091 17.2731 20.81 17.2323 20.7089L17.1967 20.6193C17.1935 20.6129 17.1907 20.6062 17.1884 20.5993C17.1674 20.5467 17.1444 20.494 17.1214 20.4434C17.1214 20.435 17.1141 20.4266 17.1089 20.4181C17.0817 20.3539 17.0524 20.2907 17.0211 20.2274C16.9897 20.1642 16.9562 20.0936 16.9165 20.0283V20.0199C16.8924 19.9725 16.8673 19.9251 16.8412 19.8787C16.815 19.8324 16.7805 19.7734 16.7492 19.7175C16.7178 19.6617 16.7 19.6343 16.6749 19.5922C16.6498 19.55 16.6122 19.4921 16.5798 19.4426C16.5264 19.3593 16.4752 19.2782 16.4156 19.1971C16.1806 18.8647 15.9186 18.5525 15.6323 18.2637L14.7466 17.3714C12.1365 14.7576 10.5 12.1154 10.5 8.46603L16.0925 14.1002L16.4062 14.411L17.9245 15.946C18.1951 16.2185 18.4507 16.5059 18.69 16.8067C18.7444 16.8752 18.7946 16.9436 18.849 17.0121L18.9818 17.1912C19.011 17.2313 19.0403 17.2713 19.0675 17.3113C19.0947 17.3514 19.1156 17.3798 19.1397 17.4167C19.1752 17.4683 19.2108 17.522 19.2442 17.5726C19.2777 17.6232 19.3174 17.6832 19.3488 17.739C19.3802 17.7949 19.4262 17.8634 19.4638 17.9255C19.5015 17.9877 19.5381 18.0498 19.5747 18.112V18.1173C19.6113 18.1784 19.6458 18.2416 19.6793 18.3037C19.7127 18.3659 19.7483 18.4312 19.7838 18.4955C19.8194 18.5597 19.8382 18.6008 19.8643 18.6514C19.8905 18.702 19.9177 18.7567 19.9438 18.8126C19.9616 18.8484 19.9783 18.8842 19.9961 18.9179C20.0139 18.9516 20.0442 19.0233 20.0672 19.076C20.0902 19.1286 20.1153 19.1813 20.1383 19.2392C20.1718 19.3158 20.2042 19.3938 20.2356 19.4731C20.2607 19.5353 20.2858 19.5974 20.3088 19.6596C20.3673 19.8169 20.4224 19.9749 20.474 20.1337C20.4865 20.1706 20.4991 20.2085 20.5106 20.2453C20.5221 20.2822 20.5294 20.3054 20.5378 20.336C20.5461 20.3665 20.5639 20.4234 20.5765 20.4666L20.589 20.5098C20.6005 20.5488 20.611 20.5877 20.6204 20.6257C20.6298 20.6636 20.6424 20.7036 20.6518 20.7437C20.6612 20.7837 20.679 20.849 20.6925 20.9027C20.7061 20.9565 20.725 21.0386 20.7396 21.1061C20.771 21.243 20.7971 21.38 20.8222 21.5169C20.8222 21.5169 20.8222 21.5169 20.8222 21.5243C20.8358 21.5938 20.8473 21.6634 20.8588 21.735C20.8703 21.8067 20.8787 21.8678 20.8881 21.9341C20.8881 21.9499 20.8881 21.9678 20.8954 21.9836C20.9027 22.0332 20.908 22.0837 20.9142 22.1332C20.9205 22.1828 20.9268 22.2386 20.932 22.2944C20.9372 22.3503 20.9414 22.3756 20.9446 22.4156C20.9477 22.4556 20.9519 22.4914 20.955 22.5294L20.9655 22.6579C20.9655 22.7169 20.9728 22.7748 20.977 22.8328C20.9812 22.8907 20.9833 22.9518 20.9843 23.0119C20.9853 23.0719 20.9895 23.1425 20.9906 23.2089C20.9916 23.2753 21 23.35 21 23.4259Z" fill="url(#paint0_linear_289_1505)"/>
<path d="M0 10.5788C0.00223612 8.14805 0.835019 5.79217 2.35835 3.90716C3.88169 2.02215 6.0027 0.722927 8.3649 0.227879C10.7271 -0.267168 13.1864 0.0721408 15.3296 1.18877C17.4727 2.3054 19.1689 4.13128 20.1331 6.35949C20.2 6.51752 20.2649 6.67555 20.3255 6.83673C20.3862 6.99792 20.4416 7.15911 20.4928 7.32135C20.519 7.40352 20.5441 7.48465 20.5681 7.56577C20.6881 7.97362 20.7834 8.3884 20.8536 8.80785C20.8892 9.01856 20.9174 9.23453 20.9404 9.44839C20.9477 9.52003 20.955 9.59167 20.9613 9.65909C20.9676 9.72652 20.9728 9.80132 20.977 9.8698C20.9812 9.93827 20.9843 9.98252 20.9875 10.0394C20.9906 10.0963 20.9874 10.1511 20.9937 10.2059C21 10.2606 20.9937 10.2901 20.9937 10.3312C20.9937 10.3491 20.9937 10.3671 20.9937 10.3839C20.9937 10.4282 20.9937 10.4724 20.9937 10.5156V10.5735C20.9937 10.6389 20.9937 10.7052 20.9937 10.7705L20.9885 10.9633C20.9885 11.1224 20.9739 11.2794 20.9603 11.4416C20.9467 11.6039 20.931 11.7577 20.9111 11.9189L20.886 12.1085C20.8756 12.1717 20.8662 12.236 20.8567 12.2992C20.8348 12.4298 20.8118 12.5605 20.7856 12.69C20.7595 12.8196 20.7344 12.9313 20.7062 13.0514C20.6915 13.1136 20.6769 13.1757 20.6601 13.2379C20.6434 13.3 20.6277 13.3622 20.61 13.4233C20.5922 13.4844 20.5765 13.5466 20.5577 13.6066C20.5583 13.6094 20.5583 13.6123 20.5577 13.615C20.542 13.6698 20.5252 13.7204 20.5085 13.7762C20.5085 13.7868 20.5022 13.7983 20.4981 13.8089C20.4719 13.8911 20.4458 13.9722 20.4175 14.0533C20.3893 14.1344 20.36 14.2166 20.3307 14.2967L20.2806 14.4262C20.245 14.52 20.2073 14.6127 20.1687 14.7044C20.1436 14.7644 20.1185 14.8234 20.0913 14.8835C20.0735 14.9245 20.0547 14.9656 20.0358 15.0067L19.9668 15.1553C19.9459 15.1985 19.925 15.2427 19.9031 15.2859C19.8811 15.3291 19.8549 15.3839 19.8288 15.4323C19.8027 15.4808 19.7859 15.5156 19.764 15.5567L19.7316 15.6188L19.6542 15.7589C19.6228 15.8165 19.5904 15.8734 19.5569 15.9296C19.5423 15.9559 19.5266 15.9823 19.5109 16.0076L17.0984 13.5761L17.1079 13.556C17.1309 13.5044 17.1528 13.4507 17.1748 13.4001L17.1821 13.3801C17.1947 13.3506 17.2072 13.32 17.2187 13.2906C17.2595 13.1852 17.2971 13.0872 17.3316 12.985C17.34 12.9629 17.3473 12.9418 17.3536 12.9197C17.3714 12.867 17.3892 12.8144 17.4048 12.7617C17.4048 12.7501 17.4122 12.7385 17.4153 12.7269C17.4341 12.67 17.4498 12.6131 17.4655 12.5541C17.4709 12.5398 17.4751 12.525 17.478 12.5099C17.4958 12.4456 17.5115 12.3824 17.5272 12.3182C17.5275 12.3157 17.5275 12.3132 17.5272 12.3108C17.5397 12.2592 17.5512 12.2054 17.5627 12.1559L17.569 12.1285L17.5816 12.0685C17.5941 12.0074 17.6056 11.9463 17.6171 11.8852C17.6286 11.8241 17.6391 11.7556 17.6495 11.6892C17.66 11.6228 17.6684 11.5544 17.6767 11.4869C17.6767 11.4638 17.683 11.4406 17.6851 11.4164C17.6924 11.3563 17.6987 11.2941 17.7039 11.2341C17.7044 11.232 17.7044 11.2298 17.7039 11.2278C17.7039 11.1603 17.7144 11.094 17.7186 11.0266C17.7186 10.9433 17.7269 10.8601 17.729 10.7769C17.729 10.7108 17.729 10.6445 17.729 10.5778C17.7405 9.61321 17.5619 8.65596 17.2035 7.76148C16.8451 6.86701 16.314 6.05309 15.641 5.36692C14.9681 4.68075 14.1666 4.13597 13.2832 3.76415C12.3997 3.39233 11.4517 3.20088 10.4942 3.20088C9.53677 3.20088 8.58883 3.39233 7.70535 3.76415C6.82187 4.13597 6.02042 4.68075 5.34747 5.36692C4.67452 6.05309 4.14344 6.86701 3.78503 7.76148C3.42661 8.65596 3.24798 9.61321 3.25949 10.5778C3.25949 10.6441 3.25949 10.7105 3.25949 10.7769C3.25949 10.8601 3.25949 10.9433 3.26994 11.0266C3.26994 11.094 3.27936 11.1603 3.28459 11.2278C3.2841 11.2298 3.2841 11.232 3.28459 11.2341C3.28459 11.2941 3.29609 11.3563 3.30341 11.4164C3.30341 11.4406 3.30341 11.4638 3.31073 11.4869C3.31909 11.5572 3.32851 11.6246 3.33897 11.6892C3.34838 11.7556 3.35883 11.8198 3.37138 11.8852C3.38392 11.9505 3.39439 12.0074 3.40694 12.0685L3.41949 12.1285C3.42097 12.1378 3.42306 12.1469 3.42576 12.1559C3.43726 12.2075 3.44771 12.2613 3.46131 12.3108C3.46096 12.3132 3.46096 12.3157 3.46131 12.3182C3.47595 12.3824 3.49269 12.4456 3.50942 12.5099C3.5136 12.5253 3.51778 12.5401 3.52197 12.5541C3.5387 12.6131 3.55438 12.67 3.57216 12.7269C3.57216 12.7385 3.57947 12.7501 3.58261 12.7617C3.59934 12.8144 3.61607 12.867 3.6349 12.9197C3.64117 12.9418 3.6485 12.9629 3.65687 12.985C3.69137 13.0904 3.72902 13.1894 3.7698 13.2906L3.80535 13.3801C3.80858 13.3866 3.81138 13.3933 3.81372 13.4001C3.83464 13.4528 3.85763 13.5055 3.88064 13.556C3.88064 13.5645 3.88796 13.5729 3.89319 13.5813C3.92037 13.6456 3.94966 13.7088 3.98103 13.772C4.01241 13.8352 4.04587 13.9058 4.08561 13.9711V13.9795C4.10966 14.027 4.13475 14.0744 4.16089 14.1207C4.18704 14.1671 4.22155 14.2261 4.25292 14.2819C4.28429 14.3377 4.30206 14.3651 4.32716 14.4073C4.35226 14.4494 4.3899 14.5074 4.42232 14.5569C4.47565 14.6401 4.52689 14.7212 4.58649 14.8023C4.82149 15.1348 5.08346 15.447 5.36973 15.7358L6.25546 16.6281C8.85092 19.2418 10.4875 21.884 10.4875 25.5387L4.89499 19.9045L4.58127 19.5937L3.07544 18.0587C2.80485 17.7862 2.54932 17.4988 2.30999 17.198C2.25561 17.1295 2.20541 17.0611 2.15104 16.9926L2.01823 16.8135C1.98895 16.7735 1.95966 16.7334 1.93247 16.6934C1.90529 16.6534 1.88438 16.6249 1.86033 16.588C1.82477 16.5364 1.78922 16.4827 1.75576 16.4321C1.72229 16.3816 1.68256 16.3215 1.65118 16.2657C1.61981 16.2098 1.5738 16.1414 1.53616 16.0792C1.49851 16.017 1.46191 15.9549 1.42531 15.8927V15.8875C1.38871 15.8264 1.3542 15.7631 1.32074 15.701C1.28727 15.6388 1.25172 15.5735 1.21616 15.5092C1.18061 15.445 1.16179 15.4039 1.13564 15.3533C1.1095 15.3028 1.08231 15.248 1.05617 15.1921C1.03839 15.1563 1.02166 15.1205 1.00388 15.0868C0.986104 15.0531 0.955786 14.9814 0.93278 14.9288C0.909774 14.8761 0.884672 14.8234 0.861666 14.7655C0.828203 14.6889 0.795793 14.611 0.764422 14.5316C0.739325 14.4694 0.71422 14.4073 0.691214 14.3451C0.632654 14.1878 0.577235 14.0298 0.52495 13.871L0.489399 13.7594C0.481033 13.7288 0.470575 13.6993 0.462209 13.6688C0.453844 13.6382 0.436067 13.5813 0.423519 13.5381L0.410971 13.4949C0.399468 13.456 0.389006 13.417 0.379594 13.379C0.370183 13.3411 0.357642 13.3011 0.34823 13.2611C0.338819 13.221 0.32104 13.1557 0.307446 13.102C0.293852 13.0482 0.275021 12.9661 0.260381 12.8986C0.22901 12.7617 0.202876 12.6247 0.177779 12.4878C0.177779 12.4878 0.177779 12.4878 0.177779 12.4804C0.164185 12.4109 0.152671 12.3413 0.141169 12.2697C0.129666 12.1981 0.12131 12.137 0.111898 12.0706C0.111898 12.0548 0.111891 12.0369 0.104571 12.0211C0.0972513 11.9716 0.0920298 11.921 0.0857556 11.8715C0.0794813 11.822 0.0732014 11.7661 0.0669271 11.7103C0.0606529 11.6544 0.058563 11.6292 0.0554258 11.5891C0.0522887 11.5491 0.0481084 11.5133 0.0449713 11.4753L0.0345167 11.3468C0.0345167 11.2878 0.0271982 11.2299 0.0230154 11.1719C0.0188325 11.114 0.016734 11.0529 0.0156882 10.9928C0.0146425 10.9328 0.0104663 10.8622 0.0094206 10.7958C0.00837489 10.7295 0 10.6494 0 10.5788Z" fill="url(#paint1_linear_289_1505)"/>
</g>
<defs>
<linearGradient id="paint0_linear_289_1505" x1="10.4477" y1="-5.17378" x2="10.574" y2="62.3521" gradientUnits="userSpaceOnUse">
<stop stop-color="#F28B1F"/>
<stop offset="1" stop-color="#FFD204"/>
</linearGradient>
<linearGradient id="paint1_linear_289_1505" x1="25609.9" y1="4839.2" x2="25646.8" y2="21204.6" gradientUnits="userSpaceOnUse">
<stop stop-color="#F28B1F"/>
<stop offset="1" stop-color="#FFD204"/>
</linearGradient>
<clipPath id="clip0_289_1505">
<rect width="21" height="34" fill="white"/>
</clipPath>
</defs>
</svg>
